<?xml version="1.0" encoding="UTF-8" standalone="no"?>
<!-- Generator: Adobe Illustrator 19.1.0, SVG Export Plug-In . SVG Version: 6.00 Build 0)  -->

<svg
   xmlns:dc="http://purl.org/dc/elements/1.1/"
   xmlns:cc="http://creativecommons.org/ns#"
   xmlns:rdf="http://www.w3.org/1999/02/22-rdf-syntax-ns#"
   xmlns:svg="http://www.w3.org/2000/svg"
   xmlns="http://www.w3.org/2000/svg"
   xmlns:sodipodi="http://sodipodi.sourceforge.net/DTD/sodipodi-0.dtd"
   xmlns:inkscape="http://www.inkscape.org/namespaces/inkscape"
   version="1.1"
   id="Layer_1"
   x="0px"
   y="0px"
   width="115"
   height="115"
   viewBox="0 0 114.99999 114.99999"
   xml:space="preserve"
   sodipodi:docname="logo.svg"
   inkscape:version="0.92.1 r15371"
   inkscape:export-xdpi="500.87"
   inkscape:export-ydpi="500.87"><metadata
     id="metadata3773"><rdf:RDF><cc:Work
         rdf:about=""><dc:format>image/svg+xml</dc:format><dc:type
           rdf:resource="http://purl.org/dc/dcmitype/StillImage" /><dc:title></dc:title></cc:Work></rdf:RDF></metadata><defs
     id="defs3771"><clipPath
       clipPathUnits="userSpaceOnUse"
       id="clipPath4665"><circle
         style="fill:none;stroke:#000000;stroke-width:1;stroke-linecap:round;stroke-miterlimit:4;stroke-dasharray:none;stroke-opacity:1"
         id="circle4667"
         cx="88.495483"
         cy="116.95595"
         r="48.343689" /></clipPath></defs><sodipodi:namedview
     pagecolor="#ffffff"
     bordercolor="#666666"
     borderopacity="1"
     objecttolerance="10"
     gridtolerance="10"
     guidetolerance="10"
     inkscape:pageopacity="0"
     inkscape:pageshadow="2"
     inkscape:window-width="1920"
     inkscape:window-height="1027"
     id="namedview3769"
     showgrid="false"
     inkscape:pagecheckerboard="true"
     fit-margin-top="0"
     fit-margin-left="0"
     fit-margin-right="0"
     fit-margin-bottom="0"
     inkscape:zoom="4.3335544"
     inkscape:cx="-7.935879"
     inkscape:cy="44.845585"
     inkscape:window-x="-8"
     inkscape:window-y="-8"
     inkscape:window-maximized="1"
     inkscape:current-layer="Layer_1" /><g
     id="g3821"
     transform="translate(22.492385,-107.42591)"><g
       transform="translate(0,130)"
       id="g3766"><g
         id="g3754"><linearGradient
           y2="31.2729"
           x2="40.166199"
           y1="31.2729"
           x1="1.7738"
           gradientUnits="userSpaceOnUse"
           id="SVGID_1_"><stop
             id="stop3680"
             style="stop-color:#905CFB"
             offset="0" /><stop
             id="stop3682"
             style="stop-color:#776CF9"
             offset="6.772543e-002" /><stop
             id="stop3684"
             style="stop-color:#5681F7"
             offset="0.1729" /><stop
             id="stop3686"
             style="stop-color:#3B92F5"
             offset="0.2865" /><stop
             id="stop3688"
             style="stop-color:#269FF4"
             offset="0.4097" /><stop
             id="stop3690"
             style="stop-color:#17A9F3"
             offset="0.5474" /><stop
             id="stop3692"
             style="stop-color:#0FAEF2"
             offset="0.7111" /><stop
             id="stop3694"
             style="stop-color:#0CB0F2"
             offset="0.9677" /></linearGradient><path
           inkscape:connector-curvature="0"
           id="path3697"
           d="m 39.7,47.9 -6.1,-34 C 33.2,11.5 32.4,9.1 30.9,6.8 28.9,3.6 25.7,1.4 22.1,0.5 7.9,-2.9 -2.6,11.3 3.6,23.9 c 0,0 0,0 0,0 l 14.8,31.7 c 0.4,1 1,2 1.7,2.9 1.2,1.6 2.8,2.8 4.7,3.4 9.6,3 17.3,-5.5 14.9,-14 z"
           style="fill:url(#SVGID_1_)" /><linearGradient
           y2="43.866402"
           x2="69.227798"
           y1="9.6690998"
           x1="5.3112998"
           gradientUnits="userSpaceOnUse"
           id="SVGID_2_"><stop
             id="stop3699"
             style="stop-color:#905CFB"
             offset="0" /><stop
             id="stop3701"
             style="stop-color:#776CF9"
             offset="6.772543e-002" /><stop
             id="stop3703"
             style="stop-color:#5681F7"
             offset="0.1729" /><stop
             id="stop3705"
             style="stop-color:#3B92F5"
             offset="0.2865" /><stop
             id="stop3707"
             style="stop-color:#269FF4"
             offset="0.4097" /><stop
             id="stop3709"
             style="stop-color:#17A9F3"
             offset="0.5474" /><stop
             id="stop3711"
             style="stop-color:#0FAEF2"
             offset="0.7111" /><stop
             id="stop3713"
             style="stop-color:#0CB0F2"
             offset="0.9677" /></linearGradient><path
           inkscape:connector-curvature="0"
           id="path3716"
           d="M 67.4,26.5 C 66,24.3 64,22.6 61.7,21.6 L 25.5,1.7 v 0 C 24.5,1.2 23.4,0.7 22.2,0.4 6.7,-3.2 -4.4,13.8 5.5,27 c 1.5,2 3.6,3.6 6,4.5 L 48,47.9 c 0.8,0.5 1.6,0.8 2.5,1.1 14,4.4 24.6,-10.4 16.9,-22.5 z"
           style="fill:url(#SVGID_2_)" /><linearGradient
           y2="33.186298"
           x2="55.983299"
           y1="70.819801"
           x1="-19.2836"
           gradientUnits="userSpaceOnUse"
           id="SVGID_3_"><stop
             id="stop3718"
             style="stop-color:#3BEA62"
             offset="0" /><stop
             id="stop3720"
             style="stop-color:#31DE80"
             offset="0.117" /><stop
             id="stop3722"
             style="stop-color:#24CEA8"
             offset="0.3025" /><stop
             id="stop3724"
             style="stop-color:#1AC1C9"
             offset="0.4844" /><stop
             id="stop3726"
             style="stop-color:#12B7DF"
             offset="0.6592" /><stop
             id="stop3728"
             style="stop-color:#0EB2ED"
             offset="0.8238" /><stop
             id="stop3730"
             style="stop-color:#0CB0F2"
             offset="0.9677" /></linearGradient><path
           inkscape:connector-curvature="0"
           id="path3733"
           d="M 67.4,26.5 C 65.6,23.7 62.8,21.7 59.5,20.9 56,20.1 52.7,20.4 49.9,21.6 L 11.4,36.1 c 0,0 -0.2,0.1 -0.6,0.4 C 0.9,40.4 -4,53.3 4,64 c 1.8,2.4 4.3,4.2 7.1,5 5.3,1.6 10.1,1 14,-1.1 0,0 0.1,0 0.1,0 L 62.8,47.8 c 0,0 0,0 0.1,-0.1 6.6,-3.8 9.7,-13.1 4.5,-21.2 z"
           style="fill:url(#SVGID_3_)" /><linearGradient
           y2="77.5093"
           x2="5.4232001"
           y1="5.8502998"
           x1="38.943901"
           gradientUnits="userSpaceOnUse"
           id="SVGID_4_"><stop
             id="stop3735"
             style="stop-color:#3BEA62"
             offset="0" /><stop
             id="stop3737"
             style="stop-color:#2FDB87"
             offset="9.397750e-002" /><stop
             id="stop3739"
             style="stop-color:#24CEA8"
             offset="0.196" /><stop
             id="stop3741"
             style="stop-color:#1BC3C3"
             offset="0.3063" /><stop
             id="stop3743"
             style="stop-color:#14BAD8"
             offset="0.4259" /><stop
             id="stop3745"
             style="stop-color:#10B5E7"
             offset="0.5596" /><stop
             id="stop3747"
             style="stop-color:#0DB1EF"
             offset="0.7185" /><stop
             id="stop3749"
             style="stop-color:#0CB0F2"
             offset="0.9677" /></linearGradient><path
           inkscape:connector-curvature="0"
           id="path3752"
           d="m 50.3,12.8 c 1.2,-2.7 1.1,-6 -0.9,-9 C 48.3,2 46.5,0.8 44.5,0.3 40,-0.8 36.2,1.3 34.4,4.5 L 3.5,42 c 0,0 0,0 0,0.1 -4.4,5.8 -5.1,14.4 0.5,21.9 1.8,2.4 4.3,4.2 7.1,5 10.5,3.3 19.3,-2.5 22.1,-10.8 z"
           style="fill:url(#SVGID_4_)" /></g><g
         id="g3764"><rect
           id="rect3756"
           height="43.200001"
           width="43.200001"
           style="fill:#000000"
           y="13.4"
           x="13.4" /><rect
           id="rect3758"
           height="2.7"
           width="16.200001"
           style="fill:#ffffff"
           y="48.5"
           x="17.5" /><polygon
           id="polygon3760"
           points="26.8,22.7 26.8,37 22.9,37 22.9,22.7 17.5,22.7 17.5,19.1 32.3,19.1 32.3,22.7 "
           style="fill:#ffffff" /><path
           inkscape:connector-curvature="0"
           id="path3762"
           d="m 32.5,28.1 v 0 c 0,-5.1 3.8,-9.3 9.3,-9.3 3.4,0 5.4,1.1 7.1,2.8 l -2.5,2.9 c -1.4,-1.3 -2.8,-2 -4.6,-2 -3,0 -5.2,2.5 -5.2,5.6 V 28 c 0,3.1 2.1,5.6 5.2,5.6 2,0 3.3,-0.8 4.7,-2.1 L 49,34 c -1.8,2 -3.9,3.2 -7.3,3.2 -5.3,0.1 -9.2,-4 -9.2,-9.1"
           style="fill:#ffffff" /></g></g></g><g
     id="g4673"
     transform="translate(5.4255539,5.4255539)"><g
       transform="translate(-3.6984086,-3.6984086)"
       id="g4634"><circle
         style="fill:none;stroke:#ffffff;stroke-width:7.49841595;stroke-miterlimit:4;stroke-dasharray:none;stroke-opacity:1"
         id="path3823"
         cx="55.772854"
         cy="55.772854"
         r="48.325237" /><path
         style="fill:none;stroke:#ffffff;stroke-width:7;stroke-linecap:round;stroke-linejoin:miter;stroke-miterlimit:4;stroke-dasharray:none;stroke-opacity:1"
         d="M 90.899013,90.899013 104.31195,104.31195"
         id="path4630"
         inkscape:connector-curvature="0" /></g><circle
       clip-path="url(#clipPath4665)"
       r="37.510986"
       cy="52.074448"
       cx="52.074448"
       id="path3823-8"
       style="fill:none;stroke:#ffffff;stroke-width:7;stroke-miterlimit:4;stroke-dasharray:none;stroke-opacity:1" /></g></svg>